<svg xmlns="http://www.w3.org/2000/svg" viewBox="0 0 512 512" fill="none">
  <path d="M256 0C114.6 0 0 114.6 0 256s114.6 256 256 256 256-114.6 256-256S397.4 0 256 0z" fill="#E63946"/>
  <path d="M256 48c-114.9 0-208 93.1-208 208s93.1 208 208 208 208-93.1 208-208S370.9 48 256 48zm0 376c-92.8 0-168-75.2-168-168S163.2 88 256 88s168 75.2 168 168-75.2 168-168 168z" fill="white"/>
  <path d="M256 120v272" stroke="white" stroke-width="40" stroke-linecap="round"/>
  <path d="M120 256h272" stroke="white" stroke-width="40" stroke-linecap="round"/>
</svg>
